<?xml version="1.0" encoding="UTF-8" standalone="no"?>
<!-- Created with Inkscape (http://www.inkscape.org/) -->

<svg
   width="210mm"
   height="297mm"
   viewBox="0 0 210 297"
   version="1.1"
   id="svg1"
   xml:space="preserve"
   inkscape:version="1.4.3 (0d15f75, 2025-12-25)"
   sodipodi:docname="esponja.svg"
   xmlns:inkscape="http://www.inkscape.org/namespaces/inkscape"
   xmlns:sodipodi="http://sodipodi.sourceforge.net/DTD/sodipodi-0.dtd"
   xmlns="http://www.w3.org/2000/svg"
   xmlns:svg="http://www.w3.org/2000/svg"><sodipodi:namedview
     id="namedview1"
     pagecolor="#ffffff"
     bordercolor="#000000"
     borderopacity="0.25"
     inkscape:showpageshadow="2"
     inkscape:pageopacity="0.0"
     inkscape:pagecheckerboard="0"
     inkscape:deskcolor="#d1d1d1"
     inkscape:document-units="mm"
     inkscape:zoom="0.97386896"
     inkscape:cx="280.8386"
     inkscape:cy="473.88305"
     inkscape:window-width="1920"
     inkscape:window-height="991"
     inkscape:window-x="-9"
     inkscape:window-y="-9"
     inkscape:window-maximized="1"
     inkscape:current-layer="layer1" /><defs
     id="defs1" /><g
     inkscape:label="Camada 1"
     inkscape:groupmode="layer"
     id="layer1"><path
       style="fill:#aad400;stroke:#000000;stroke-width:1.144;stroke-dasharray:none;stroke-opacity:1;stroke-dashoffset:0"
       d="m 27.471539,131.59444 -0.768435,29.58473 44.761319,25.35834 96.822767,-35.92432 1.15265,-29.96895 -98.93596,34.96378 z"
       id="path1" /><path
       style="display:inline;fill:#aad400;stroke:#000000;stroke-width:1.144;stroke-dasharray:none;stroke-dashoffset:0;stroke-opacity:1"
       d="m 27.27943,131.01811 c -8.63523,-12.1725 86.68898,-37.051085 97.97542,-39.958603 5.98381,-0.02218 46.45923,17.616533 44.38776,25.971633 3.95508,11.3875 -63.91465,22.97663 -99.522948,38.57688 z"
       id="path2"
       sodipodi:nodetypes="ccccc" /><ellipse
       style="fill:#677821;stroke:#000000;stroke-width:0;stroke-dasharray:none;stroke-dashoffset:0;stroke-opacity:1"
       id="path3"
       cx="9.8676634"
       cy="135.30502"
       rx="4.3469229"
       ry="2.6489062"
       transform="rotate(-15.184562)" /><ellipse
       style="fill:#677821;stroke:#000000;stroke-width:0;stroke-dasharray:none;stroke-dashoffset:0;stroke-opacity:1"
       id="path3-5"
       cx="22.067196"
       cy="134.81218"
       rx="2.804081"
       ry="1.7143562"
       transform="matrix(0.96625065,-0.25760374,0.25579026,0.9667323,0,0)" /><ellipse
       style="fill:#677821;stroke:#000000;stroke-width:0;stroke-dasharray:none;stroke-dashoffset:0;stroke-opacity:1"
       id="path3-5-4"
       cx="42.199673"
       cy="134.96678"
       rx="2.2932053"
       ry="1.3769994"
       transform="matrix(0.99654098,-0.08310277,0.08426798,0.99644313,0,0)" /><ellipse
       style="fill:#677821;stroke:#000000;stroke-width:0;stroke-dasharray:none;stroke-dashoffset:0;stroke-opacity:1"
       id="path3-5-4-1"
       cx="65.571587"
       cy="133.45148"
       rx="2.2932053"
       ry="1.3769994"
       transform="matrix(0.99654098,-0.08310277,0.08426798,0.99644313,0,0)" /><ellipse
       style="fill:#677821;stroke:#000000;stroke-width:0;stroke-dasharray:none;stroke-dashoffset:0;stroke-opacity:1"
       id="path3-5-4-1-1"
       cx="82.256599"
       cy="135.95403"
       rx="2.2932053"
       ry="1.3769994"
       transform="matrix(0.99654098,-0.08310277,0.08426798,0.99644313,0,0)" /><ellipse
       style="fill:#677821;stroke:#000000;stroke-width:0;stroke-dasharray:none;stroke-dashoffset:0;stroke-opacity:1"
       id="path3-5-4-1-1-1"
       cx="82.11377"
       cy="141.47949"
       rx="2.2932053"
       ry="1.3769994"
       transform="matrix(0.99654098,-0.08310277,0.08426798,0.99644313,0,0)" /><ellipse
       style="fill:#677821;stroke:#000000;stroke-width:0;stroke-dasharray:none;stroke-dashoffset:0;stroke-opacity:1"
       id="path3-5-4-1-1-1-4"
       cx="77.044777"
       cy="122.74154"
       rx="1.3056655"
       ry="0.73596406"
       transform="matrix(0.99695555,-0.07797195,0.08980683,0.9959592,0,0)" /><ellipse
       style="fill:#677821;stroke:#000000;stroke-width:0;stroke-dasharray:none;stroke-dashoffset:0;stroke-opacity:1"
       id="path3-5-4-1-7"
       cx="54.124168"
       cy="146.11586"
       rx="3.2420051"
       ry="1.5490222"
       transform="matrix(0.99782046,-0.06598734,0.10603926,0.99436194,0,0)" /><ellipse
       style="fill:#677821;stroke:#000000;stroke-width:0;stroke-dasharray:none;stroke-dashoffset:0;stroke-opacity:1"
       id="path3-5-4-1-6"
       cx="25.149542"
       cy="134.29333"
       rx="3.3643465"
       ry="1.7888638"
       transform="matrix(0.9498106,-0.31282555,0.41824206,0.90833561,0,0)" /><ellipse
       style="fill:#677821;stroke:#000000;stroke-width:0;stroke-dasharray:none;stroke-dashoffset:0;stroke-opacity:1"
       id="path3-5-4-1-6-3"
       cx="46.606548"
       cy="143.49243"
       rx="3.3643465"
       ry="1.7888638"
       transform="matrix(0.9498106,-0.31282555,0.41824206,0.90833561,0,0)" /><ellipse
       style="fill:#677821;stroke:#000000;stroke-width:0;stroke-dasharray:none;stroke-dashoffset:0;stroke-opacity:1"
       id="path3-5-4-1-6-3-0"
       cx="76.434631"
       cy="137.8172"
       rx="3.007575"
       ry="1.4450058"
       transform="matrix(0.98204585,-0.1886424,0.35677629,0.93418985,0,0)" /><ellipse
       style="fill:#677821;stroke:#000000;stroke-width:0;stroke-dasharray:none;stroke-dashoffset:0;stroke-opacity:1"
       id="path3-5-4-1-6-3-0-5"
       cx="85.836296"
       cy="130.3642"
       rx="2.303407"
       ry="1.2266932"
       transform="matrix(0.97726175,-0.21203647,0.32030446,0.94731465,0,0)" /><ellipse
       style="fill:#677821;stroke:#000000;stroke-width:0;stroke-dasharray:none;stroke-dashoffset:0;stroke-opacity:1"
       id="path3-5-4-1-6-3-0-5-3"
       cx="101.33846"
       cy="141.8385"
       rx="2.303407"
       ry="1.2266932"
       transform="matrix(0.97726175,-0.21203647,0.32030446,0.94731465,0,0)" /><ellipse
       style="fill:#677821;stroke:#000000;stroke-width:0;stroke-dasharray:none;stroke-dashoffset:0;stroke-opacity:1"
       id="path3-5-4-1-6-3-0-5-66"
       cx="109.98766"
       cy="144.73752"
       rx="2.303407"
       ry="1.2266932"
       transform="matrix(0.97726175,-0.21203647,0.32030446,0.94731465,0,0)" /><ellipse
       style="fill:#677821;stroke:#000000;stroke-width:0;stroke-dasharray:none;stroke-dashoffset:0;stroke-opacity:1"
       id="path3-5-4-1-6-3-0-5-6"
       cx="79.794357"
       cy="122.65852"
       rx="3.1014955"
       ry="1.3932992"
       transform="matrix(0.98466697,-0.17444473,0.38258987,0.92391828,0,0)" /><ellipse
       style="fill:#677821;stroke:#000000;stroke-width:0;stroke-dasharray:none;stroke-dashoffset:0;stroke-opacity:1"
       id="path3-5-4-1-6-3-5"
       cx="84.617157"
       cy="117.35801"
       rx="4.1384807"
       ry="1.973334"
       transform="matrix(0.99368456,-0.11220961,0.26522713,0.96418596,0,0)" /><path
       style="display:inline;fill:#916f6f;stroke:#000000;stroke-width:0;stroke-dasharray:none;stroke-dashoffset:0;stroke-opacity:1"
       d="m 80.553914,149.42547 12.225721,-8.01464 14.942545,-5.97701 18.74611,-7.8788 21.05541,-3.12435 h 7.33543 l 4.63673,0.73264 c 5.98374,0.95253 -55.12443,18.37571 -79.756993,26.84315 z"
       id="path4"
       sodipodi:nodetypes="ccccccccc" /><path
       style="fill:#6f4949;fill-opacity:1;stroke:#000000;stroke-width:0;stroke-dasharray:none;stroke-dashoffset:0;stroke-opacity:1"
       d="m 77.361644,152.21022 2.716827,-8.96553 5.501573,1.90178 2.580987,-6.99583 8.897607,1.6301 6.112862,-8.76177 11.95404,1.49426 7.87879,-9.5089 8.69385,3.46396 4.00732,-1.9697 4.82237,0.27168 2.58098,-4.95821 5.5695,2.98851 3.39603,-3.05643 7.24491,5.39186 -6.42986,0.92476 -1.83386,-0.81504 -4.48276,1.42633 -2.17347,-1.42633 -3.73563,3.80355 -4.279,-0.3396 -3.5998,2.71683 -7.67504,-2.58099 -7.74295,8.49008 -11.41068,-0.95088 -5.09405,7.06375 -9.780572,0.20376 -3.26019,4.75444 -5.094052,0.0679 -0.815047,2.44515 -3.124353,1.15465 z"
       id="path5"
       sodipodi:nodetypes="cccccccccccccccccccccccccccccccc" /></g></svg>
