<?xml version="1.0" encoding="UTF-8" standalone="no"?>
<!-- Created with Inkscape (http://www.inkscape.org/) -->

<svg
   version="1.1"
   id="svg1"
   width="64"
   height="64"
   viewBox="0 0 64 64"
   sodipodi:docname="fish_pink.svg"
   inkscape:version="1.4.2 (f4327f4, 2025-05-13)"
   xmlns:inkscape="http://www.inkscape.org/namespaces/inkscape"
   xmlns:sodipodi="http://sodipodi.sourceforge.net/DTD/sodipodi-0.dtd"
   xmlns="http://www.w3.org/2000/svg"
   xmlns:svg="http://www.w3.org/2000/svg">
  <defs
     id="defs1" />
  <sodipodi:namedview
     id="namedview1"
     pagecolor="#ffffff"
     bordercolor="#000000"
     borderopacity="0.25"
     inkscape:showpageshadow="2"
     inkscape:pageopacity="0.0"
     inkscape:pagecheckerboard="0"
     inkscape:deskcolor="#d1d1d1"
     showgrid="false"
     inkscape:zoom="12.078125"
     inkscape:cx="32"
     inkscape:cy="25.376455"
     inkscape:window-width="1920"
     inkscape:window-height="991"
     inkscape:window-x="-9"
     inkscape:window-y="-9"
     inkscape:window-maximized="1"
     inkscape:current-layer="g1" />
  <g
     inkscape:groupmode="layer"
     inkscape:label="Image"
     id="g1">
    <path
       style="fill:#ff00ff;stroke:#b224db;stroke-width:2.37354;stroke-opacity:1"
       d="m 44.957309,23.844761 c -2.212835,-3.440456 -5.287371,-4.080382 -8.362225,-4.719276 l -8.445019,0.910738 0.413971,6.126778 -1.987063,0.331178 -2.649418,-3.228978 -3.725744,-0.579561 -8.776197,6.706339 -0.745148,3.974127 8.527813,7.120311 2.649418,0.57956 5.216042,-3.725744 1.324709,0.745149 c 0.706774,3.15696 1.903468,5.824 4.802069,6.789133 l 6.375162,-4.305304 8.196637,-0.165589 5.547218,-7.948253 C 52.53753,27.7051 49.25717,25.297039 44.957309,23.844761 Z"
       id="path1"
       sodipodi:nodetypes="cccccccccccccccccc" />
    <ellipse
       style="fill:#1a1a1a;stroke:#b224db;stroke-width:0.37795276;stroke-opacity:1;stroke-dasharray:none"
       id="path2"
       cx="44.294956"
       cy="31.586029"
       rx="1.4902976"
       ry="2.1940491" />
    <path
       id="rect2"
       style="fill:#e100e1;stroke:#b224db;stroke-width:0.377953"
       d="m 30.219923,32.869339 h 7.948254 c 1.223245,1.428878 0.737591,2.288123 0,3.063389 h -7.948254 c -1.065409,-1.185039 -1.766909,-2.314092 0,-3.063389 z"
       sodipodi:nodetypes="ccccc" />
  </g>
</svg>
